<svg xmlns="http://www.w3.org/2000/svg" width="320" height="320" viewBox="0 0 320 320" role="img" aria-label="Alipay QR placeholder">
  <rect width="320" height="320" fill="#ffffff"/>
  <rect x="24" y="24" width="88" height="88" rx="8" fill="#1677ff"/>
  <rect x="208" y="24" width="88" height="88" rx="8" fill="#1677ff"/>
  <rect x="24" y="208" width="88" height="88" rx="8" fill="#1677ff"/>
  <rect x="48" y="48" width="40" height="40" rx="4" fill="#ffffff"/>
  <rect x="232" y="48" width="40" height="40" rx="4" fill="#ffffff"/>
  <rect x="48" y="232" width="40" height="40" rx="4" fill="#ffffff"/>
  <g fill="#222222">
    <rect x="144" y="32" width="16" height="16"/>
    <rect x="168" y="32" width="16" height="16"/>
    <rect x="136" y="72" width="24" height="24"/>
    <rect x="176" y="88" width="16" height="16"/>
    <rect x="136" y="136" width="16" height="56"/>
    <rect x="168" y="128" width="32" height="16"/>
    <rect x="216" y="144" width="24" height="24"/>
    <rect x="256" y="136" width="16" height="56"/>
    <rect x="136" y="216" width="24" height="24"/>
    <rect x="176" y="216" width="16" height="56"/>
    <rect x="216" y="216" width="56" height="16"/>
    <rect x="240" y="256" width="32" height="16"/>
  </g>
  <text x="160" y="304" text-anchor="middle" fill="#1677ff" font-family="Arial, sans-serif" font-size="18" font-weight="700">Replace with Alipay QR</text>
</svg>
